<svg aria-hidden="true" style="width:0;height:0;position:absolute;overflow:hidden" xmlns="http://www.w3.org/2000/svg"><defs><symbol id="icon-close" viewBox="0 0 32 32"><path d="M20.312 16 31.115 5.197c.546-.546.884-1.301.884-2.134s-.338-1.588-.884-2.134l-.043-.043C30.526.34 29.771.002 28.938.002S27.35.34 26.804.886L16.001 11.689 5.198.886C4.652.34 3.897.002 3.064.002S1.476.34.93.886L.887.929C.341 1.475.003 2.23.003 3.063s.338 1.588.884 2.134L11.69 16 .887 26.803c-.546.546-.884 1.301-.884 2.134s.338 1.588.884 2.134l.043.043c.546.546 1.301.884 2.134.884s1.588-.338 2.134-.884l10.803-10.803 10.803 10.803c.546.546 1.301.884 2.134.884s1.588-.338 2.134-.884l.043-.043c.546-.546.884-1.301.884-2.134s-.338-1.588-.884-2.134z"/></symbol></defs></svg>